<!-- <svg width="103.07mm" height="42.705mm" version="1.1" viewBox="0 0 103.07 42.705" xmlns="http://www.w3.org/2000/svg">
 <g transform="translate(-44.52 -72.319)">
  <rect x="44.52" y="72.319" width="51.008" height="28.418" ry="4.6153" fill="#ec489a"/>
  <rect x="96.586" y="86.607" width="51.008" height="28.418" ry="4.6153" fill="#3b83f6"/>
  <text transform="scale(1.1176 .89474)" x="39.833332" y="103.52657" fill="#ffffff" font-size="23.548px" stroke-linecap="round" stroke-linejoin="round" stroke-width=".96118" xml:space="preserve"><tspan x="42.833332" y="103.52657" fill="#ffffff" stroke-width=".96118">Hey</tspan></text>
  <text transform="scale(1.1782 .84876)" x="83.271675" y="129.03409" fill="#ffffff" font-size="28.807px" stroke-linecap="round" stroke-linejoin="round" stroke-width="1.1759" xml:space="preserve"><tspan x="83.271675" y="129.03409" stroke-width="1.1759">Yo!</tspan></text>
 </g>
</svg> -->

<svg width="103.07mm" height="42.705mm" version="1.1" viewBox="0 0 103.07 42.705" xmlns="http://www.w3.org/2000/svg">
 <g transform="translate(-44.52 -72.319)">
  <rect x="44.52" y="72.319" width="51.008" height="28.418" ry="4.6153" fill="#ec489a"/>
  <rect x="96.586" y="86.607" width="51.008" height="28.418" ry="4.6153" fill="#3b83f6"/>
  <g transform="scale(1.1176 .89474)" fill="#ffffff" stroke-linecap="round" stroke-linejoin="round" stroke-width=".96118" aria-label="Hey">
   <path d="m55.229 103.53h-2.2766v-8.3821h-8.543v8.3821h-2.2766v-17.121h2.2766v6.7149h8.543v-6.7149h2.2766z"/>
   <path d="m70.407 97.329h-9.4629q0 1.1843 0.35644 2.0696 0.35644 0.87386 0.97733 1.4373 0.5979 0.55191 1.4143 0.82786 0.82786 0.27595 1.8167 0.27595 1.3108 0 2.6331-0.51741 1.3338-0.52891 1.8972-1.0348h0.11498v2.3571q-1.0923 0.45992-2.2306 0.77037-1.1383 0.31044-2.3916 0.31044-3.1965 0-4.9902-1.7247-1.7937-1.7362-1.7937-4.9212 0-3.1505 1.7132-5.0016 1.7247-1.8512 4.5302-1.8512 2.5986 0 4.0013 1.5177 1.4143 1.5177 1.4143 4.3118zm-2.1041-1.6557q-0.0115-1.7017-0.86235-2.6331-0.83936-0.93134-2.5641-0.93134-1.7362 0-2.771 1.0233-1.0233 1.0233-1.1613 2.5411z"/>
   <path d="m84.791 90.683-7.4967 17.581h-2.3111l2.3916-5.3581-5.1166-12.222h2.3456l3.9438 9.5204 3.9783-9.5204z"/>
  </g>
  <g transform="scale(1.1782 .84876)" fill="#ffffff" stroke-linecap="round" stroke-linejoin="round" stroke-width="1.1759" aria-label="Yo!">
   <path d="m100.91 108.09-7.3705 11.759v9.185h-2.7851v-8.8897l-7.3987-12.054h3.0804l5.7248 9.3679 5.7811-9.3679z"/>
   <path d="m115.16 121.19q0 3.84-1.9692 6.0624-1.9692 2.2224-5.2747 2.2224-3.3336 0-5.3028-2.2224-1.9552-2.2224-1.9552-6.0624 0-3.84 1.9552-6.0624 1.9692-2.2365 5.3028-2.2365 3.3055 0 5.2747 2.2365 1.9692 2.2224 1.9692 6.0624zm-2.7288 0q0-3.0523-1.1956-4.5292-1.1956-1.491-3.3196-1.491-2.1521 0-3.3477 1.491-1.1815 1.4769-1.1815 4.5292 0 2.9538 1.1956 4.487 1.1956 1.5191 3.3336 1.5191 2.1099 0 3.3055-1.505 1.2097-1.5191 1.2097-4.5011z"/>
   <path d="m123.89 108.09-0.36571 15.177h-2.3912l-0.39384-15.177zm-0.14065 20.944h-2.8694v-2.9679h2.8694z"/>
  </g>
 </g>
</svg>